<svg class="logo" width="96" height="40" viewBox="0 0 96 40" fill="none" xmlns="http://www.w3.org/2000/svg">
    <path d="M19.6479 0.299252L14.7729 6.79302L20.0067 13.7656H17.0459L12.0513 6.79302L16.687 0.299252H19.6479ZM9.06054 13.7656V0.299252H11.4532V13.7656H9.06054ZM5.7408 6.79302L0.865848 0.299252H3.85661L8.46239 6.79302L3.52763 13.7656H0.59668L5.7408 6.79302Z"
          fill="black"/>
    <path d="M34.5694 0.299252L29.1861 13.7656C27.2121 18.5835 25.956 19.7506 24.0419 19.7506C23.0251 19.7506 22.2176 19.3915 21.4998 18.9127L22.2774 17.0873C22.726 17.2968 23.2344 17.5362 23.7728 17.5362C24.9093 17.5362 25.7467 16.6384 26.6439 14.4838L26.943 13.7656L20.4829 0.299252H23.3541L27.3019 8.85786C27.6009 9.54613 27.8402 10.2045 28.1094 10.8928C28.2888 10.2344 28.4982 9.54614 28.7374 8.82793L31.8478 0.299252H34.5694Z"
          fill="black"/>
    <path d="M37.0282 19.7506V0.299252H39.4208V1.88529C40.3479 0.80798 42.1424 0 43.9966 0C47.8248 0 50.2174 2.84289 50.2174 6.82294C50.2174 10.9227 47.436 14.0648 43.2191 14.0648C41.7835 14.0648 40.3778 13.7656 39.4208 13.1372V19.7506H37.0282ZM43.3088 2.24439C41.7237 2.24439 40.2582 3.05237 39.4208 4.09975V10.7731C40.6171 11.581 41.7237 11.8204 43.0097 11.8204C45.8808 11.8204 47.6753 9.75561 47.6753 6.91272C47.6753 4.18953 46.0902 2.24439 43.3088 2.24439Z"
          fill="black"/>
    <path d="M63.5163 13.7656V8.0798H56.0394V13.7656H53.6468V0.299252H56.0394V5.83541H63.5163V0.299252H65.9089V13.7656H63.5163Z"
          fill="black"/>
    <path d="M70.9539 3.14214L70.3259 1.22693C71.5222 0.478802 73.1372 0 74.812 0C78.6402 0 79.9861 2.00499 79.9861 5.50623V13.7656H77.7131V12.0299C76.9056 13.0474 75.6195 13.9751 73.4064 13.9751C70.9539 13.9751 69.2791 12.419 69.2791 9.81546C69.2791 7.06234 71.4624 5.53616 74.3634 5.53616C75.4102 5.53616 76.8158 5.74564 77.7131 6.40399C77.7131 3.89027 77.3243 2.15461 74.6625 2.15461C73.0176 2.15461 72.0306 2.57357 70.9539 3.14214ZM74.2438 11.8204C76.0083 11.8204 77.0252 10.8928 77.7131 10.0848V8.37905C76.8757 7.78055 75.8588 7.4813 74.6924 7.4813C73.2568 7.4813 71.8213 8.13965 71.8213 9.69576C71.8213 10.9825 72.6886 11.8204 74.2438 11.8204Z"
          fill="black"/>
    <path d="M93.2041 13.7656V2.69327H88.4787L88.3291 4.96758C87.731 12.6284 85.6973 13.9451 82.9158 13.9451L82.7364 11.611C83.7533 11.7007 85.6673 10.7132 85.9963 4.48878L86.2356 0.299252H95.5967V13.7656H93.2041Z"
          fill="black"/>
    <path d="M12.0214 39.7007V28.4788H4.69403V39.7007H2.30142V26.2344H14.414V39.7007H12.0214Z" fill="black"/>
    <path d="M17.8475 32.9676C17.8475 28.9277 20.7187 25.9352 25.0254 25.9352C29.3321 25.9352 32.2032 28.9277 32.2032 32.9676C32.2032 37.0075 29.3321 40 25.0254 40C20.7187 40 17.8475 37.0075 17.8475 32.9676ZM20.3897 32.9676C20.3897 35.7805 22.3337 37.7556 25.0254 37.7556C27.7171 37.7556 29.6611 35.8404 29.6611 32.9676C29.6611 30.1546 27.7171 28.1796 25.0254 28.1796C22.3935 28.1796 20.3897 30.1247 20.3897 32.9676Z"
          fill="black"/>
    <path d="M37.749 33.8354V31.8903H44.3586C43.9698 29.4065 42.1155 28.1796 39.693 28.1796C38.0182 28.1796 36.6125 28.7182 35.5657 29.6459L34.5489 27.8504C35.805 26.6234 37.9284 25.9352 39.6631 25.9352C43.91 25.9352 46.8409 28.6883 46.8409 32.9676C46.8409 36.8878 43.9698 40 40.022 40C37.8985 40 35.8648 39.5212 34.6087 38.2943L35.7452 36.5287C36.6723 37.3666 38.3471 37.7556 39.8724 37.7556C42.3548 37.7556 44.0595 36.3192 44.3885 33.8354H37.749Z"
          fill="black"/>
    <path d="M54.7442 40C52.7703 40 50.0786 39.2519 49.1814 38.1746L50.4076 36.3791C51.5441 37.3067 53.2189 37.8454 54.3853 37.8454C56.4191 37.8454 57.9145 36.9776 57.9145 35.6309C57.9145 34.5237 56.9275 33.8953 55.2826 33.8953H53.0096V31.9501H55.133C56.4789 31.9501 57.4658 31.1122 57.4658 30.0349C57.4658 28.808 56.3293 28.0898 54.5947 28.0898C52.7404 28.0898 51.4544 28.8678 50.5572 29.586L49.63 27.7307C50.7366 26.5935 52.8302 25.9352 54.9536 25.9352C58.2434 25.9352 60.008 27.3416 60.008 29.5561C60.008 30.8728 59.35 32.1297 57.6453 32.7282V32.788C59.5295 32.9975 60.4566 34.404 60.4566 35.9601C60.4566 38.4738 58.064 40 54.7442 40Z"
          fill="black"/>
    <path d="M66.4954 39.7007H64.1028V26.2344H66.4954V36.2593L74.2714 26.2344H76.664V39.7007H74.2714V29.6758L66.4954 39.7007Z"
          fill="black"/>
    <path d="M86.9052 26.2344H91.0923V39.7007H88.6997V35.212H86.0977L82.8079 39.7007H79.9069L83.7948 34.6135C82.4191 34.2843 80.8938 32.9377 80.8938 30.7232C80.8938 28.419 82.4191 26.2344 86.9052 26.2344ZM83.436 30.783C83.436 32.1596 84.7519 32.9676 85.9482 32.9676H88.6997V28.4788H86.5164C84.2734 28.4788 83.436 29.5262 83.436 30.783Z"
          fill="black"/>
</svg>
